<svg width="16" height="17" viewBox="0 0 16 17" fill="none" xmlns="http://www.w3.org/2000/svg">
<g opacity="0.5" clip-path="url(#clip0_8970_615)">
<path d="M7.75 11.75C8.09521 11.75 8.375 12.0298 8.375 12.375C8.375 12.7202 8.09521 13 7.75 13H6.875C6.52979 13 6.25 12.7202 6.25 12.375C6.25 12.0298 6.52979 11.75 6.875 11.75H7.75ZM12.875 8.40625C12.875 8.06104 12.5952 7.78125 12.25 7.78125H6.875C6.52979 7.78125 6.25 8.06104 6.25 8.40625C6.25 8.75146 6.52979 9.03125 6.875 9.03125H12.25C12.5952 9.03125 12.875 8.75146 12.875 8.40625ZM6.875 5.28125H12.25C12.5952 5.28125 12.875 5.00146 12.875 4.65625C12.875 4.31104 12.5952 4.03125 12.25 4.03125H6.875C6.52979 4.03125 6.25 4.31104 6.25 4.65625C6.25 5.00146 6.52979 5.28125 6.875 5.28125ZM4.375 11.75H3.75C3.40479 11.75 3.125 12.0298 3.125 12.375C3.125 12.7202 3.40479 13 3.75 13H4.375C4.72021 13 5 12.7202 5 12.375C5 12.0298 4.72021 11.75 4.375 11.75ZM4.375 7.78125H3.75C3.40479 7.78125 3.125 8.06104 3.125 8.40625C3.125 8.75146 3.40479 9.03125 3.75 9.03125H4.375C4.72021 9.03125 5 8.75146 5 8.40625C5 8.06104 4.72021 7.78125 4.375 7.78125ZM4.375 4.03125H3.75C3.40479 4.03125 3.125 4.31104 3.125 4.65625C3.125 5.00146 3.40479 5.28125 3.75 5.28125H4.375C4.72021 5.28125 5 5.00146 5 4.65625C5 4.31104 4.72021 4.03125 4.375 4.03125ZM15.817 15.433C16.061 15.6771 16.061 16.0729 15.817 16.3169C15.6949 16.439 15.5349 16.5 15.375 16.5C15.2151 16.5 15.0551 16.439 14.933 16.317L13.8757 15.2598C13.4547 15.5114 12.9628 15.6562 12.4375 15.6562C10.8867 15.6562 9.625 14.3945 9.625 12.8438C9.625 11.293 10.8867 10.0312 12.4375 10.0312C13.9883 10.0312 15.25 11.293 15.25 12.8438C15.25 13.4176 15.0771 13.9517 14.7809 14.3971L15.817 15.433ZM12.4375 14.4062C13.2991 14.4062 14 13.7053 14 12.8438C14 11.9822 13.2991 11.2812 12.4375 11.2812C11.5759 11.2812 10.875 11.9822 10.875 12.8438C10.875 13.7053 11.5759 14.4062 12.4375 14.4062ZM13.5 0.5H2.5C1.12146 0.5 0 1.62146 0 3V14C0 15.3785 1.12146 16.5 2.5 16.5H8.9375C9.28271 16.5 9.5625 16.2202 9.5625 15.875C9.5625 15.5298 9.28271 15.25 8.9375 15.25H2.5C1.81079 15.25 1.25 14.6892 1.25 14V3C1.25 2.31079 1.81079 1.75 2.5 1.75H13.5C14.1892 1.75 14.75 2.31079 14.75 3V9.1875C14.75 9.53271 15.0298 9.8125 15.375 9.8125C15.7202 9.8125 16 9.53271 16 9.1875V3C16 1.62146 14.8785 0.5 13.5 0.5Z" fill="#505050"/>
</g>
<defs>
<clipPath id="clip0_8970_615">
<rect width="16" height="16" fill="white" transform="translate(0 0.5)"/>
</clipPath>
</defs>
</svg>
