<svg width="16" height="17" viewBox="0 0 16 17" fill="none" xmlns="http://www.w3.org/2000/svg">
<g opacity="0.5" clip-path="url(#clip0_8970_530)">
<path d="M13.5 0.5H11.125C9.7465 0.5 8.625 1.6215 8.625 3V5.375C8.625 6.7535 9.7465 7.875 11.125 7.875H13.5C14.8785 7.875 16 6.7535 16 5.375V3C16 1.6215 14.8785 0.5 13.5 0.5ZM14.75 5.375C14.75 6.06425 14.1892 6.625 13.5 6.625H11.125C10.4358 6.625 9.875 6.06425 9.875 5.375V3C9.875 2.31075 10.4358 1.75 11.125 1.75H13.5C14.1892 1.75 14.75 2.31075 14.75 3V5.375Z" fill="#505050"/>
<path d="M4.875 0.5H2.5C1.1215 0.5 0 1.6215 0 3V5.375C0 6.7535 1.1215 7.875 2.5 7.875H4.875C6.2535 7.875 7.375 6.7535 7.375 5.375V3C7.375 1.6215 6.2535 0.5 4.875 0.5ZM6.125 5.375C6.125 6.06425 5.56425 6.625 4.875 6.625H2.5C1.81075 6.625 1.25 6.06425 1.25 5.375V3C1.25 2.31075 1.81075 1.75 2.5 1.75H4.875C5.56425 1.75 6.125 2.31075 6.125 3V5.375Z" fill="#505050"/>
<path d="M4.875 9.125H2.5C1.1215 9.125 0 10.2465 0 11.625V14C0 15.3785 1.1215 16.5 2.5 16.5H4.875C6.2535 16.5 7.375 15.3785 7.375 14V11.625C7.375 10.2465 6.2535 9.125 4.875 9.125ZM6.125 14C6.125 14.6892 5.56425 15.25 4.875 15.25H2.5C1.81075 15.25 1.25 14.6892 1.25 14V11.625C1.25 10.9358 1.81075 10.375 2.5 10.375H4.875C5.56425 10.375 6.125 10.9358 6.125 11.625V14Z" fill="#505050"/>
<path d="M15.375 13.375C15.0298 13.375 14.75 13.6548 14.75 14C14.75 14.6892 14.1892 15.25 13.5 15.25H11.125C10.4358 15.25 9.875 14.6892 9.875 14V11.625C9.875 10.9358 10.4358 10.375 11.125 10.375H13.5C13.997 10.375 14.4469 10.6693 14.6461 11.1249C14.7844 11.4412 15.1529 11.5854 15.4692 11.4471C15.7854 11.3088 15.9297 10.9403 15.7914 10.6241C15.3932 9.71341 14.4938 9.125 13.5 9.125H11.125C9.7465 9.125 8.625 10.2465 8.625 11.625V14C8.625 15.3785 9.7465 16.5 11.125 16.5H13.5C14.8785 16.5 16 15.3785 16 14C16 13.6548 15.7202 13.375 15.375 13.375Z" fill="#505050"/>
</g>
<defs>
<clipPath id="clip0_8970_530">
<rect width="16" height="16" fill="white" transform="translate(0 0.5)"/>
</clipPath>
</defs>
</svg>
