<svg width="16" height="17" viewBox="0 0 16 17" fill="none" xmlns="http://www.w3.org/2000/svg">
<g opacity="0.5" clip-path="url(#clip0_8970_586)">
<path d="M13.6569 2.84313C12.1458 1.33216 10.1369 0.5 8 0.5C5.86312 0.5 3.85416 1.33216 2.34313 2.84313C0.832156 4.35416 0 6.36312 0 8.5C0 10.6369 0.832156 12.6458 2.34313 14.1569C3.85416 15.6678 5.86312 16.5 8 16.5C9.46291 16.5 10.8943 16.1013 12.1394 15.3471C12.4347 15.1682 12.529 14.7839 12.3502 14.4887C12.1713 14.1934 11.787 14.0991 11.4918 14.2779C10.442 14.9139 9.23453 15.25 8 15.25C4.27803 15.25 1.25 12.222 1.25 8.5C1.25 4.77803 4.27803 1.75 8 1.75C11.722 1.75 14.75 4.77803 14.75 8.5C14.75 9.83091 14.3542 11.1264 13.6054 12.2464C13.4136 12.5333 13.4907 12.9215 13.7776 13.1133C14.0646 13.3052 14.4528 13.2281 14.6446 12.9411C15.5313 11.6148 16 10.0791 16 8.5C16 6.36312 15.1678 4.35416 13.6569 2.84313Z" fill="#505050"/>
<path d="M6.07193 12.1749C6.16643 12.226 6.26821 12.2502 6.36859 12.2502C6.59074 12.2502 6.8059 12.1314 6.91893 11.9223L10.2973 5.67231C10.4615 5.36862 10.3484 4.98941 10.0447 4.82531C9.74099 4.66116 9.36177 4.77428 9.19771 5.07791L5.81934 11.3279C5.65518 11.6316 5.76827 12.0108 6.07193 12.1749Z" fill="#505050"/>
<path d="M6.96875 6.3125C6.96875 5.45094 6.26781 4.75 5.40625 4.75C4.54469 4.75 3.84375 5.45094 3.84375 6.3125C3.84375 7.17406 4.54469 7.875 5.40625 7.875C6.26781 7.875 6.96875 7.17406 6.96875 6.3125ZM5.40625 6.625C5.23394 6.625 5.09375 6.48481 5.09375 6.3125C5.09375 6.14019 5.23394 6 5.40625 6C5.57856 6 5.71875 6.14019 5.71875 6.3125C5.71875 6.48481 5.57856 6.625 5.40625 6.625Z" fill="#505050"/>
<path d="M10.5625 12.25C11.4241 12.25 12.125 11.5491 12.125 10.6875C12.125 9.82594 11.4241 9.125 10.5625 9.125C9.70094 9.125 9 9.82594 9 10.6875C9 11.5491 9.70094 12.25 10.5625 12.25ZM10.5625 10.375C10.7348 10.375 10.875 10.5152 10.875 10.6875C10.875 10.8598 10.7348 11 10.5625 11C10.3902 11 10.25 10.8598 10.25 10.6875C10.25 10.5152 10.3902 10.375 10.5625 10.375Z" fill="#505050"/>
</g>
<defs>
<clipPath id="clip0_8970_586">
<rect width="16" height="16" fill="white" transform="translate(0 0.5)"/>
</clipPath>
</defs>
</svg>
