<svg width="16" height="17" viewBox="0 0 16 17" fill="none" xmlns="http://www.w3.org/2000/svg">
<g opacity="0.5">
<path d="M12.9688 9.09375C13.3139 9.09375 13.5938 8.81393 13.5938 8.46875C13.5938 8.12357 13.3139 7.84375 12.9688 7.84375C12.6236 7.84375 12.3438 8.12357 12.3438 8.46875C12.3438 8.81393 12.6236 9.09375 12.9688 9.09375Z" fill="#505050"/>
<path d="M15.375 9.375C15.7202 9.375 16 9.09519 16 8.75V5.125C16 3.7465 14.8785 2.625 13.5 2.625H2.5C1.1215 2.625 0 3.7465 0 5.125V11.875C0 13.2535 1.1215 14.375 2.5 14.375H13.5C14.8785 14.375 16 13.2535 16 11.875C16 11.5298 15.7202 11.25 15.375 11.25C15.0298 11.25 14.75 11.5298 14.75 11.875C14.75 12.5642 14.1892 13.125 13.5 13.125H2.5C1.81075 13.125 1.25 12.5642 1.25 11.875V5.125C1.25 4.43575 1.81075 3.875 2.5 3.875H13.5C14.1892 3.875 14.75 4.43575 14.75 5.125V8.75C14.75 9.09519 15.0298 9.375 15.375 9.375Z" fill="#505050"/>
<path d="M4.84375 8.49609C4.84375 10.3571 6.25966 11.8711 8 11.8711C9.74034 11.8711 11.1562 10.3571 11.1562 8.49609C11.1562 6.63509 9.74034 5.12109 8 5.12109C6.25966 5.12109 4.84375 6.63509 4.84375 8.49609ZM9.90625 8.49609C9.90625 9.66781 9.05113 10.6211 8 10.6211C6.94887 10.6211 6.09375 9.66781 6.09375 8.49609C6.09375 7.32437 6.94887 6.37109 8 6.37109C9.05113 6.37109 9.90625 7.32437 9.90625 8.49609Z" fill="#505050"/>
<path d="M3.03125 9.09375C3.37643 9.09375 3.65625 8.81393 3.65625 8.46875C3.65625 8.12357 3.37643 7.84375 3.03125 7.84375C2.68607 7.84375 2.40625 8.12357 2.40625 8.46875C2.40625 8.81393 2.68607 9.09375 3.03125 9.09375Z" fill="#505050"/>
</g>
</svg>
