<svg width="16" height="17" viewBox="0 0 16 17" fill="none" xmlns="http://www.w3.org/2000/svg">
<g opacity="0.5" clip-path="url(#clip0_8970_621)">
<path d="M8 4.875C6.00116 4.875 4.375 6.50119 4.375 8.5C4.375 10.4988 6.00116 12.125 8 12.125C8.37334 12.125 8.74172 12.0683 9.09488 11.9566C9.42397 11.8524 9.60628 11.5012 9.50212 11.1721C9.398 10.843 9.04669 10.6607 8.71766 10.7648C8.48666 10.8379 8.24522 10.875 8 10.875C6.69044 10.875 5.625 9.80959 5.625 8.5C5.625 7.19041 6.69044 6.125 8 6.125C9.30956 6.125 10.375 7.19041 10.375 8.5C10.375 8.72759 10.343 8.95247 10.2798 9.16831C10.1829 9.49962 10.373 9.84672 10.7043 9.94363C11.0357 10.0405 11.3827 9.8505 11.4796 9.51919C11.5761 9.18931 11.625 8.84637 11.625 8.5C11.625 6.50119 9.99884 4.875 8 4.875Z" fill="#505050"/>
<path d="M14.125 6.31253H13.8103C13.7275 6.31253 13.6524 6.26038 13.6199 6.18169L13.6143 6.16819C13.5807 6.08713 13.5968 5.99691 13.6553 5.93834L13.8779 5.71578C14.609 4.98472 14.609 3.79519 13.8779 3.06413L13.436 2.62219C13.0818 2.26803 12.6109 2.073 12.1101 2.073C11.6092 2.073 11.1384 2.26803 10.7843 2.62219L10.5618 2.84472C10.5032 2.90331 10.4128 2.91937 10.3322 2.88584L10.3204 2.88097C10.2397 2.84763 10.1875 2.77259 10.1875 2.68981V2.375C10.1875 1.34113 9.34641 0.5 8.31253 0.5H7.68753C6.65366 0.5 5.81253 1.34113 5.81253 2.375V2.68981C5.81253 2.77259 5.76041 2.84763 5.68038 2.88066L5.66816 2.88572C5.58719 2.91941 5.49687 2.90331 5.43834 2.84475L5.21578 2.62219C4.86166 2.26803 4.39078 2.073 3.88994 2.073C3.38909 2.073 2.91825 2.26803 2.56409 2.62219L2.12216 3.06406C1.39109 3.79516 1.39109 4.98466 2.12219 5.71575L2.34472 5.93828C2.40328 5.99687 2.41934 6.08709 2.38475 6.17047L2.38097 6.17959C2.34766 6.26031 2.27256 6.31247 2.18978 6.31247H1.875C0.841125 6.31247 0 7.15359 0 8.18747V8.81247C0 9.84634 0.841125 10.6875 1.875 10.6875H2.18975C2.27256 10.6875 2.34759 10.7396 2.38013 10.8183L2.38569 10.8318C2.41934 10.9129 2.40325 11.0031 2.34469 11.0617L2.12216 11.2842C1.768 11.6384 1.57297 12.1092 1.57297 12.6101C1.57297 13.1109 1.768 13.5817 2.12212 13.9359L2.56406 14.3778C2.91822 14.732 3.38909 14.927 3.88991 14.927C4.39078 14.927 4.86163 14.732 5.21575 14.3778L5.43828 14.1553C5.49681 14.0967 5.58716 14.0806 5.66787 14.1142L5.67966 14.119C5.76037 14.1524 5.8125 14.2274 5.8125 14.3102V14.625C5.8125 15.6589 6.65363 16.5 7.6875 16.5H8.3125C9.34637 16.5 10.1875 15.6589 10.1875 14.625V14.3102C10.1875 14.2274 10.2396 14.1524 10.3197 14.1193L10.3319 14.1143C10.4129 14.0807 10.5032 14.0967 10.5617 14.1552L10.7843 14.3778C11.1384 14.732 11.6093 14.927 12.1101 14.927C12.6109 14.927 13.0818 14.732 13.4359 14.3778L13.8779 13.9359C14.232 13.5817 14.427 13.1109 14.427 12.6101C14.427 12.1092 14.232 11.6384 13.8779 11.2843L13.6553 11.0617C13.5967 11.0031 13.5807 10.9129 13.6143 10.8318L13.619 10.8204C13.6524 10.7397 13.7274 10.6875 13.8102 10.6875H14.125C15.1589 10.6875 16 9.84641 16 8.81253V8.18753C16 7.15366 15.1589 6.31253 14.125 6.31253ZM14.75 8.8125C14.75 9.15713 14.4696 9.4375 14.125 9.4375H13.8102C13.2194 9.4375 12.6909 9.793 12.4637 10.3432L12.4596 10.353C12.2316 10.903 12.3539 11.528 12.7714 11.9456L12.994 12.1681C13.112 12.2862 13.177 12.4431 13.177 12.6101C13.177 12.777 13.112 12.9339 12.9939 13.052L12.552 13.4939C12.4339 13.612 12.277 13.677 12.1101 13.677C11.9431 13.677 11.7862 13.612 11.6681 13.4939L11.4455 13.2713C11.0278 12.8537 10.4024 12.7315 9.85206 12.96L9.84325 12.9637C9.29303 13.1909 8.9375 13.7194 8.9375 14.3102V14.625C8.9375 14.9696 8.65713 15.25 8.3125 15.25H7.6875C7.34288 15.25 7.0625 14.9696 7.0625 14.625V14.3102C7.0625 13.7194 6.70697 13.1909 6.15609 12.9634L6.14766 12.9599C5.96359 12.8834 5.77119 12.8463 5.58087 12.8463C5.20241 12.8463 4.83241 12.9934 4.55444 13.2714L4.33187 13.494C4.21381 13.612 4.05691 13.677 3.88994 13.677C3.723 13.677 3.56603 13.612 3.448 13.4939L3.00606 13.052C2.888 12.9339 2.823 12.777 2.823 12.6101C2.823 12.4431 2.888 12.2862 3.00606 12.1681L3.22863 11.9456C3.64616 11.528 3.76847 10.903 3.54037 10.353L3.53631 10.3432C3.30906 9.793 2.78053 9.4375 2.18978 9.4375H1.875C1.53038 9.4375 1.25 9.15713 1.25 8.8125V8.1875C1.25 7.84288 1.53038 7.5625 1.875 7.5625H2.18978C2.78056 7.5625 3.30909 7.207 3.53716 6.65478L3.54006 6.64769C3.76856 6.09756 3.64631 5.47219 3.22859 5.05444L3.00606 4.83191C2.76234 4.58819 2.76234 4.19169 3.00606 3.948L3.44797 3.50606C3.56606 3.38803 3.723 3.323 3.88994 3.323C4.05691 3.323 4.21384 3.388 4.33187 3.50606L4.55447 3.72866C4.97225 4.14634 5.59766 4.26859 6.14794 4.03997L6.15675 4.03631C6.70697 3.80913 7.0625 3.28059 7.0625 2.68981V2.375C7.0625 2.03038 7.34288 1.75 7.6875 1.75H8.3125C8.65713 1.75 8.9375 2.03038 8.9375 2.375V2.68981C8.9375 3.28059 9.29303 3.80912 9.84391 4.03656L9.85234 4.04006C10.4024 4.2685 11.0278 4.14628 11.4456 3.72859L11.6681 3.506C11.7862 3.38797 11.9431 3.32297 12.1101 3.32297C12.277 3.32297 12.434 3.388 12.552 3.50603L12.9939 3.94797C13.2377 4.19166 13.2377 4.58816 12.994 4.83184L12.7714 5.05444C12.3537 5.47219 12.2314 6.09753 12.459 6.64537L12.4637 6.65678C12.6909 7.207 13.2195 7.5625 13.8102 7.5625H14.125C14.4696 7.5625 14.75 7.84288 14.75 8.1875V8.8125Z" fill="#505050"/>
</g>
<defs>
<clipPath id="clip0_8970_621">
<rect width="16" height="16" fill="white" transform="translate(0 0.5)"/>
</clipPath>
</defs>
</svg>
