<svg width="209" height="172" viewBox="0 0 209 172" fill="none" xmlns="http://www.w3.org/2000/svg">
<g opacity="0.3" clip-path="url(#clip0_8970_631)">
<path d="M0 129.057C0 152.771 15.6216 172 34.8875 172H69.6357C69.6357 148.286 54.0141 129.057 34.7482 129.057H0Z" fill="#505050"/>
<path d="M0.000183105 129.057C0.000183105 141.171 7.98508 151 17.8269 151H34.8645C34.8645 138.886 26.8796 129.057 17.0377 129.057H0.000183105Z" fill="#F5A793"/>
<path d="M6.10352e-05 85.2573C6.10352e-05 108.972 15.6217 128.2 34.8875 128.2H69.6357C69.6357 104.486 54.0141 85.2573 34.7483 85.2573H6.10352e-05Z" fill="#E2DDD3"/>
<path d="M34.8177 106.229C34.8177 118.343 42.8026 128.172 52.6444 128.172H69.682C69.682 116.058 61.6971 106.229 51.8552 106.229H34.8177Z" fill="#F9D34B"/>
<path d="M69.6125 128.115C69.6125 140.229 77.5975 150.058 87.4393 150.058H104.477C104.477 137.943 96.492 128.115 86.6501 128.115H69.6125Z" fill="#F9D34B"/>
<path d="M87.0679 150.057C87.0679 162.171 95.0295 172 104.895 172H121.932C121.932 159.886 113.947 150.057 104.105 150.057H87.0679Z" fill="#F5A793"/>
<path d="M6.10352e-05 39.8857C19.1499 39.8857 34.6554 59 34.6554 82.5428C34.6554 83.4 34.6322 84.2571 34.5858 85.1143H6.10352e-05V39.8857Z" fill="#FF6600"/>
<path d="M139.341 0.856796C158.05 0.856796 173.207 18.7711 173.207 40.8568C173.207 41.6568 173.184 42.4854 173.137 43.2568H139.341V0.856796Z" fill="#FF6600"/>
<path d="M207.764 42.9715C207.764 66.0001 193.21 84.6572 175.267 84.6572C174.617 84.6572 173.944 84.6287 173.317 84.5715V42.9429H207.764V42.9715Z" fill="#FF6600"/>
<path d="M69.5428 64.4858C69.5428 52.73 61.8005 43.2001 52.2499 43.2001C42.6993 43.2001 34.957 52.73 34.957 64.4858C34.957 76.2415 42.6993 85.7715 52.2499 85.7715C61.8005 85.7715 69.5428 76.2415 69.5428 64.4858Z" fill="#F9D34B"/>
<path d="M61.9988 64.4853C61.9988 57.8579 57.634 52.4853 52.2498 52.4853C46.8656 52.4853 42.5008 57.8579 42.5008 64.4853C42.5008 71.1128 46.8656 76.4854 52.2498 76.4854C57.634 76.4854 61.9988 71.1128 61.9988 64.4853Z" fill="#803124"/>
<path d="M68.8468 -0.000213623C78.6886 -0.000213623 86.6735 9.82835 86.6735 21.9426V42.9141C76.8317 42.9141 68.8468 33.0855 68.8468 20.9712V-0.000213623Z" fill="#505050"/>
<path d="M86.7429 21.743C96.5848 21.743 104.57 31.5715 104.57 43.6858V64.6572C94.7278 64.6572 86.7429 54.8287 86.7429 42.7144V21.743Z" fill="#F5A793"/>
<path d="M69.6824 128.172C69.6824 116.058 77.6673 106.229 87.5091 106.229H104.547C104.547 118.343 96.5618 128.172 86.7199 128.172H69.6824Z" fill="#505050"/>
<path d="M69.6819 84.7714C69.6819 96.6285 77.4811 106.229 87.1141 106.229H104.546V84.7714C104.546 72.9142 96.747 63.3142 87.1141 63.3142C77.5043 63.2856 69.6819 72.9142 69.6819 84.7714Z" fill="#FF6600"/>
<path d="M100.16 11.1139C100.16 7.53198 97.8006 4.62823 94.8906 4.62823C91.9805 4.62823 89.6215 7.53198 89.6215 11.1139C89.6215 14.6959 91.9805 17.5996 94.8906 17.5996C97.8006 17.5996 100.16 14.6959 100.16 11.1139Z" fill="#FF6600"/>
<path d="M82.8665 160.771C82.8665 157.552 80.7465 154.942 78.1313 154.942C75.5161 154.942 73.3961 157.552 73.3961 160.771C73.3961 163.99 75.5161 166.6 78.1313 166.6C80.7465 166.6 82.8665 163.99 82.8665 160.771Z" fill="#FF6600"/>
<path d="M118.079 139.971C118.079 136.452 115.762 133.6 112.903 133.6C110.044 133.6 107.727 136.452 107.727 139.971C107.727 143.49 110.044 146.343 112.903 146.343C115.762 146.343 118.079 143.49 118.079 139.971Z" fill="#77BD74"/>
<path d="M83.4699 54.0287C83.4699 50.4941 81.142 47.6287 78.2705 47.6287C75.3989 47.6287 73.071 50.4941 73.071 54.0287C73.071 57.5633 75.3989 60.4287 78.2705 60.4287C81.142 60.4287 83.4699 57.5633 83.4699 54.0287Z" fill="#F5A793"/>
<path d="M104.477 43.7711C123.742 43.7711 139.364 62.9997 139.364 86.7139V129.485C120.098 129.485 104.477 110.257 104.477 86.5425V43.7711Z" fill="#E2DDD3"/>
<path d="M121.515 86.5427C131.356 86.5427 139.341 96.3713 139.341 108.486V129.457C129.499 129.457 121.515 119.628 121.515 107.514V86.5427Z" fill="#FF6600"/>
<path d="M139.341 21.743C139.341 9.88591 131.542 0.285919 121.909 0.285919H104.477V21.743C104.477 33.6002 112.276 43.2002 121.909 43.2002C131.542 43.2002 139.341 33.6002 139.341 21.743Z" fill="#F9D34B"/>
<path d="M118.079 139.971C118.079 136.452 115.762 133.6 112.903 133.6C110.044 133.6 107.727 136.452 107.727 139.971C107.727 143.49 110.044 146.343 112.903 146.343C115.762 146.343 118.079 143.49 118.079 139.971Z" fill="#F5A793"/>
<path d="M134.397 139.971C134.397 136.453 132.079 133.6 129.221 133.6C126.362 133.6 124.044 136.453 124.044 139.971C124.044 143.49 126.362 146.343 129.221 146.343C132.079 146.343 134.397 143.49 134.397 139.971Z" fill="#FF6600"/>
<path d="M134.397 160.257C134.397 156.739 132.079 153.886 129.22 153.886C126.362 153.886 124.044 156.739 124.044 160.257C124.044 163.776 126.362 166.629 129.22 166.629C132.079 166.629 134.397 163.776 134.397 160.257Z" fill="#505050"/>
<path d="M209 86.5425C209 110.257 193.378 129.485 174.113 129.485H139.388C139.388 105.771 155.009 86.5425 174.275 86.5425H209Z" fill="#E2DDD3"/>
<path d="M174.275 107.514C174.275 119.628 166.29 129.457 156.448 129.457H139.411C139.411 117.343 147.396 107.514 157.237 107.514H174.275Z" fill="#FEC700"/>
<path d="M139.341 86.543C158.05 86.543 173.207 68.6287 173.207 46.543C173.207 45.743 173.184 44.9144 173.137 44.143H139.341V86.543Z" fill="#505050"/>
<path d="M139.341 65.5996C149.253 65.5996 157.284 56.1139 157.284 44.3996C157.284 43.971 157.284 43.5424 157.261 43.1139H139.341V65.5996Z" fill="#F5A793"/>
<path d="M173.23 172C191.939 172 207.096 154.086 207.096 132C207.096 131.2 207.073 130.371 207.027 129.6H173.23V172Z" fill="#F9D34B"/>
<path d="M173.231 152.057C183.142 152.057 191.174 142.571 191.174 130.857C191.174 130.428 191.174 129.999 191.15 129.571H173.231V152.057Z" fill="#505050"/>
<path d="M173.23 172C154.522 172 139.364 154.086 139.364 132C139.364 131.2 139.387 130.371 139.434 129.6H173.254V172H173.23Z" fill="#FF6600"/>
</g>
<defs>
<clipPath id="clip0_8970_631">
<rect width="172" height="209" fill="white" transform="matrix(0 -1 1 0 0 172)"/>
</clipPath>
</defs>
</svg>
