<svg width="16" height="17" viewBox="0 0 16 17" fill="none" xmlns="http://www.w3.org/2000/svg">
<g opacity="0.5" clip-path="url(#clip0_8970_609)">
<path d="M4.65625 7.8125C4.65625 8.15771 4.37646 8.4375 4.03125 8.4375C3.68604 8.4375 3.40625 8.15771 3.40625 7.8125V7.1875C3.40625 6.84229 3.68604 6.5625 4.03125 6.5625C4.37646 6.5625 4.65625 6.84229 4.65625 7.1875V7.8125ZM6.53125 6.5625C6.18604 6.5625 5.90625 6.84229 5.90625 7.1875V7.8125C5.90625 8.15771 6.18604 8.4375 6.53125 8.4375C6.87646 8.4375 7.15625 8.15771 7.15625 7.8125V7.1875C7.15625 6.84229 6.87646 6.5625 6.53125 6.5625ZM4.65625 10C4.65625 9.65479 4.37646 9.375 4.03125 9.375C3.68604 9.375 3.40625 9.65479 3.40625 10V10.625C3.40625 10.9702 3.68604 11.25 4.03125 11.25C4.37646 11.25 4.65625 10.9702 4.65625 10.625V10ZM7.15625 10.625V10C7.15625 9.65479 6.87646 9.375 6.53125 9.375C6.18604 9.375 5.90625 9.65479 5.90625 10V10.625C5.90625 10.9702 6.18604 11.25 6.53125 11.25C6.87646 11.25 7.15625 10.9702 7.15625 10.625ZM4.03125 12.1875C3.68604 12.1875 3.40625 12.4673 3.40625 12.8125V13.4375C3.40625 13.7827 3.68604 14.0625 4.03125 14.0625C4.37646 14.0625 4.65625 13.7827 4.65625 13.4375V12.8125C4.65625 12.4673 4.37646 12.1875 4.03125 12.1875ZM4.65625 4.375C4.65625 4.02979 4.37646 3.75 4.03125 3.75C3.68604 3.75 3.40625 4.02979 3.40625 4.375V5C3.40625 5.34521 3.68604 5.625 4.03125 5.625C4.37646 5.625 4.65625 5.34521 4.65625 5V4.375ZM7.15625 4.375C7.15625 4.02979 6.87646 3.75 6.53125 3.75C6.18604 3.75 5.90625 4.02979 5.90625 4.375V5C5.90625 5.34521 6.18604 5.625 6.53125 5.625C6.87646 5.625 7.15625 5.34521 7.15625 5V4.375ZM8.40625 4.375V5C8.40625 5.34521 8.68604 5.625 9.03125 5.625C9.37646 5.625 9.65625 5.34521 9.65625 5V4.375C9.65625 4.02979 9.37646 3.75 9.03125 3.75C8.68604 3.75 8.40625 4.02979 8.40625 4.375ZM14.7753 16.035C14.5348 16.3306 14.1799 16.5 13.8016 16.5H7.69836C7.31799 16.5 6.96204 16.3307 6.7218 16.0355C6.4801 15.7385 6.38623 15.3527 6.46423 14.9769C6.66614 14.0043 7.20093 13.1193 7.96997 12.4849C8.26123 12.2446 8.5813 12.0447 8.92065 11.8884C8.5426 11.4589 8.3125 10.896 8.3125 10.2802C8.3125 8.93604 9.40588 7.84265 10.75 7.84265C12.0941 7.84265 13.1875 8.93604 13.1875 10.2802C13.1875 10.896 12.9574 11.4589 12.5793 11.8884C12.9187 12.0447 13.2388 12.2445 13.53 12.4849C14.2837 13.1066 14.8123 13.969 15.0232 14.9186C15.0281 14.9351 15.0322 14.9517 15.0358 14.9686C15.1141 15.3466 15.0192 15.7352 14.7753 16.035ZM9.5625 10.2802C9.5625 10.9349 10.0952 11.4677 10.75 11.4677C11.4048 11.4677 11.9375 10.9349 11.9375 10.2802C11.9375 9.62537 11.4048 9.09265 10.75 9.09265C10.0952 9.09265 9.5625 9.62537 9.5625 10.2802ZM13.8121 15.2323C13.812 15.2319 13.8119 15.2314 13.8119 15.2311C13.5117 13.7856 12.224 12.7365 10.75 12.7365C9.276 12.7365 7.98816 13.7856 7.68811 15.2311C7.6853 15.2451 7.69495 15.2496 7.69495 15.2498C7.69519 15.2498 7.69629 15.25 7.69836 15.25H13.8016C13.802 15.2496 13.8104 15.2433 13.8121 15.2323ZM4.6875 15.25H2.1875V3.3125H2.8125C3.15771 3.3125 3.4375 3.03271 3.4375 2.6875V1.75H9.65625V2.6875C9.65625 3.03271 9.93604 3.3125 10.2812 3.3125H10.9062V6.0625C10.9062 6.40771 11.186 6.6875 11.5312 6.6875C11.8765 6.6875 12.1562 6.40771 12.1562 6.0625V2.6875C12.1562 2.34229 11.8765 2.0625 11.5312 2.0625H10.9062V1.125C10.9062 0.779785 10.6265 0.5 10.2812 0.5H2.8125C2.46729 0.5 2.1875 0.779785 2.1875 1.125V2.0625H1.5625C1.21729 2.0625 0.9375 2.34229 0.9375 2.6875V15.875C0.9375 16.2202 1.21729 16.5 1.5625 16.5H4.6875C5.03271 16.5 5.3125 16.2202 5.3125 15.875C5.3125 15.5298 5.03271 15.25 4.6875 15.25Z" fill="#505050"/>
</g>
<defs>
<clipPath id="clip0_8970_609">
<rect width="16" height="16" fill="white" transform="translate(0 0.5)"/>
</clipPath>
</defs>
</svg>
