<svg width="16" height="17" viewBox="0 0 16 17" fill="none" xmlns="http://www.w3.org/2000/svg">
<path d="M15.9596 14.2101C15.8893 13.8722 15.5584 13.6552 15.2203 13.7256C14.8824 13.7959 14.6655 14.1269 14.7359 14.4648C14.7764 14.6595 14.7281 14.859 14.6035 15.0123C14.5313 15.1011 14.3703 15.25 14.1035 15.25H1.89683C1.63001 15.25 1.46905 15.1011 1.39686 15.0123C1.2722 14.859 1.22395 14.6595 1.26448 14.4648C1.91311 11.3494 4.66108 9.07356 7.83448 8.99681C7.88945 8.99894 7.94467 9 8.00017 9C8.05586 9 8.1113 8.99891 8.16648 8.99678C10.4019 9.05041 12.468 10.1826 13.7192 12.0487C13.9114 12.3354 14.2996 12.4119 14.5864 12.2197C14.8731 12.0275 14.9497 11.6393 14.7574 11.3526C13.7319 9.82306 12.2427 8.71088 10.5448 8.15203C11.5795 7.37613 12.2502 6.13991 12.2502 4.75C12.2502 2.40656 10.3436 0.5 8.00017 0.5C5.6567 0.5 3.75017 2.40656 3.75017 4.75C3.75017 6.14075 4.42167 7.37762 5.45745 8.15347C4.50845 8.46591 3.61798 8.95206 2.83861 9.59313C1.40948 10.7687 0.415827 12.4083 0.0407336 14.2101C-0.0768289 14.7747 0.0640148 15.3545 0.427077 15.801C0.788359 16.2452 1.32408 16.5 1.89683 16.5H14.1035C14.6763 16.5 15.212 16.2452 15.5732 15.801C15.9364 15.3545 16.0772 14.7747 15.9596 14.2101ZM5.00017 4.75C5.00017 3.09578 6.34595 1.75 8.00017 1.75C9.65439 1.75 11.0002 3.09578 11.0002 4.75C11.0002 6.35328 9.73595 7.66684 8.15201 7.74619C8.10148 7.74525 8.05086 7.74478 8.00017 7.74478C7.94973 7.74478 7.8993 7.74528 7.84892 7.74622C6.2647 7.66719 5.00017 6.3535 5.00017 4.75Z" fill="#505050"/>
</svg>
