<svg width="16" height="17" viewBox="0 0 16 17" fill="none" xmlns="http://www.w3.org/2000/svg">
<g clip-path="url(#clip0_8970_600)">
<path d="M12.6562 8.53129C11.6224 8.53129 10.7812 9.37241 10.7812 10.4063C10.7812 11.4402 11.6224 12.2813 12.6562 12.2813H15.3125C15.3231 12.2813 15.3334 12.2802 15.3439 12.2797C15.3543 12.2802 15.3645 12.2813 15.375 12.2813C15.7202 12.2813 16 12.0014 16 11.6563V6.75001C16 5.91795 15.591 5.17998 14.9639 4.72533L12.8376 1.23721C12.7509 1.09496 12.611 0.993209 12.449 0.954584C12.2869 0.915897 12.1162 0.943553 11.9746 1.03137L10.4065 2.00374L9.69942 0.807053C9.61439 0.663179 9.47533 0.559366 9.31323 0.518741C9.15117 0.478116 8.97951 0.504148 8.83673 0.590897L2.8159 4.25002H1.875C1.53559 4.25002 1.2585 3.97808 1.25019 3.64064C1.2585 3.30321 1.53559 3.03127 1.875 3.03127H3.03124C3.37643 3.03127 3.65624 2.75146 3.65624 2.40627C3.65624 2.06108 3.37643 1.78127 3.03124 1.78127H1.875C0.990686 1.78127 0.247468 2.39671 0.0509374 3.22174C0.01825 3.29755 0 3.38099 0 3.46877V3.62502V3.65627V14C0 15.3785 1.1215 16.5 2.5 16.5H13.5C14.5778 16.5 15.531 15.8134 15.8719 14.7915C15.9811 14.4641 15.8042 14.1101 15.4768 14.0009C15.1494 13.8917 14.7953 14.0685 14.6861 14.396C14.5157 14.9068 14.0391 15.25 13.5 15.25H2.5C1.81075 15.25 1.25 14.6892 1.25 14V5.3928C1.44559 5.46217 1.65593 5.50001 1.875 5.50001H13.5C14.1892 5.50001 14.75 6.06076 14.75 6.75001V8.53129H12.6562ZM14.75 11.0313H12.6562C12.3116 11.0313 12.0312 10.7509 12.0312 10.4063C12.0312 10.0616 12.3116 9.78126 12.6562 9.78126H14.75V11.0313ZM5.22274 4.25005L8.9452 1.98777L9.61073 3.11405C9.62351 3.14483 9.6382 3.17517 9.65633 3.20442C9.66992 3.22633 9.68498 3.24674 9.7007 3.26636L10.2819 4.25005H5.22274ZM11.7339 4.25002L11.0426 3.08014L12.0981 2.42561L13.2102 4.25002H11.7339Z" fill="#FF6600"/>
</g>
<defs>
<clipPath id="clip0_8970_600">
<rect width="16" height="16" fill="white" transform="translate(0 0.5)"/>
</clipPath>
</defs>
</svg>
